<svg width="40" height="40" viewBox="0 0 40 40" fill="none" xmlns="http://www.w3.org/2000/svg">
<g id="arrow_left">
<path id="Chevron" d="M20.6746 30C20.3518 29.9908 20.0567 29.9262 19.7892 29.8063C19.5218 29.6864 19.2635 29.502 19.0145 29.2529L5.59489 15.3906C5.1983 14.994 5 14.5052 5 13.9242C5 13.5368 5.09223 13.1863 5.27669 12.8727C5.46115 12.5499 5.71018 12.2963 6.02376 12.1118C6.33735 11.9181 6.68783 11.8213 7.0752 11.8213C7.64703 11.8213 8.14969 12.038 8.58317 12.4715L20.6608 25.0057L32.7523 12.4715C33.195 12.038 33.6976 11.8213 34.2603 11.8213C34.6568 11.8213 35.0119 11.9181 35.3255 12.1118C35.6391 12.2963 35.8881 12.5499 36.0726 12.8727C36.2663 13.1863 36.3631 13.5368 36.3631 13.9242C36.3631 14.5052 36.1602 14.994 35.7544 15.3906L22.3348 29.2529C22.0858 29.5112 21.8275 29.7002 21.5601 29.8201C21.2834 29.9401 20.9882 30 20.6746 30Z" fill="#272727"/>
</g>
</svg>
